<svg viewBox="0 0 116 20" xmlns="http://www.w3.org/2000/svg"><path d="M.397 6.552V.69h3.082v1.296A5.624 5.624 0 0 1 7.69.345c4.16 0 7.139 3.103 7.139 7.586 0 4.61-3.056 7.586-7.587 7.586-3.282 0-5.741-1.572-7.241-4.541l3.393-1.724c.793 1.838 1.924 2.713 3.62 2.713 1.894 0 3.025-1.034 3.339-2.969H6.476V6.552h3.845C9.95 4.8 8.793 3.865 7.124 3.865s-2.91.918-3.476 2.687zM16.031 3.793V.69h7.417v3.103h-1.379V6.11h4.341V3.793h-1.358V.69h7.407v3.103h-1.725v8.117h1.725v3.166h-7.407V11.91h1.358V8.997h-4.341v2.913h1.379v3.166h-7.417V11.91h1.724V3.793zM52.324 6.648h-2.91V.69h13.883v5.965h-2.914V3.793h-1.866v8.117h1.893v3.166h-8.113V11.91h1.893V3.793h-1.866zM70.883 2.72c1.3-1.379 2.631-2.034 4.355-2.034 3.535 0 6.207 3.055 6.207 7.635 0 4.383-2.517 7.183-6.08 7.183a5.317 5.317 0 0 1-4.482-2.318v3.449h1.893v3.169h-8.114V16.63h1.89V3.793h-1.893V.69h6.207zm6.11 5.314c0-2.686-1.217-4.186-3.083-4.186s-3.024 1.473-3.024 4.186c0 2.631 1.187 4.187 3.024 4.187s3.083-1.531 3.083-4.186zM90.214 3.793h-1.893v5.204L92.983.69h5.71v3.103h-1.724v8.117h1.893v3.166h-8.11V11.91h1.893V6.738l-4.835 8.338h-5.544V11.91h1.724V3.793h-1.893V.69h8.117zM113.32 11.91h1.724v3.166h-7.407V11.91h1.359V9.62h-1.276l-3.224 5.459h-4.41v-3.17h1.723l1.98-3.223a4.266 4.266 0 0 1-1.893-3.448c0-2.942 2.034-4.552 5.458-4.552h7.69v3.103h-1.724zm-5.514-8.117c-1.158 0-1.783.51-1.783 1.414 0 .962.566 1.527 1.783 1.527h1.186V3.793z"/><path d="M43.848.838c-1.417 0-1.948.659-1.948 2.365a.862.862 0 1 1-1.724 0c0-1.32.31-2.23.79-2.855h-.087c-4.552 0-7.662 2.97-7.662 7.549s3.11 7.62 7.662 7.62 7.635-3.024 7.635-7.586c0-3.5-1.797-6.069-4.666-7.093zm-2.814 3.6a1.562 1.562 0 1 1 .007 3.124 1.562 1.562 0 0 1-.007-3.124zM36.117 6a1.559 1.559 0 1 1 3.117 0 1.559 1.559 0 0 1-3.117 0zm1.68 3.103a1.562 1.562 0 1 1 0 .018zm3.237 4.69a1.559 1.559 0 1 1 0-3.117 1.559 1.559 0 0 1 0 3.117zm1.676-3.103a1.559 1.559 0 1 1 .007-3.118 1.559 1.559 0 0 1-.007 3.118zm1.69-3.104a1.562 1.562 0 1 1 1.558-1.558A1.559 1.559 0 0 1 44.4 7.562z" fill="#c01c2f"/></svg>