<?xml version="1.0" encoding="utf-8"?>
<!-- Generator: Adobe Illustrator 18.0.0, SVG Export Plug-In . SVG Version: 6.00 Build 0)  -->
<!DOCTYPE svg PUBLIC "-//W3C//DTD SVG 1.1//EN" "http://www.w3.org/Graphics/SVG/1.1/DTD/svg11.dtd">
<svg version="1.1" id="Слой_1" xmlns="http://www.w3.org/2000/svg" xmlns:xlink="http://www.w3.org/1999/xlink" x="0px" y="0px"
	 viewBox="0 0 48 48" enable-background="new 0 0 48 48" xml:space="preserve">
<g>
	<g>
		<path fill="#1E0E00" d="M14,1.5c10.9,0,21.7,0,32.6,0c0,0.1,0,0.1-0.1,0.2c-2.9,7.8-5.8,15.6-8.7,23.4c-2.4,6.4-4.8,12.9-7.2,19.3
			c-0.1,0.2-0.2,0.5-0.3,0.8c-2.1-5.7-4.2-11.4-6.4-17.1c-2.3,5.1-4.6,10.2-6.9,15.4c0,0,0-0.1,0-0.1c-1.2-2.7-2.4-5.5-3.5-8.2
			C9.6,26.5,5.9,17.8,2.1,9.1C1.8,8.2,1.4,7.4,1,6.5c0,0,0,0,0,0c4.9,0,9.8,0,14.7,0c0,0,0,0,0.1,0c0-0.1-0.1-0.2-0.1-0.3
			C15.1,4.6,14.5,3.1,14,1.5z M33.6,6.5c-5.9,0-11.9,0-17.8,0c2.7,7.2,5.4,14.4,8.1,21.7C27.1,20.9,30.4,13.7,33.6,6.5z"/>
		<path fill="#FEFEFE" d="M1,6.5c0.4,0.9,0.7,1.7,1.1,2.6c3.7,8.7,7.5,17.4,11.2,26.1c1.2,2.7,2.4,5.5,3.5,8.2c0,0,0,0.1,0,0.1
			c2.3-5.1,4.6-10.2,6.9-15.4c2.1,5.7,4.2,11.4,6.4,17.1c0.1-0.3,0.2-0.5,0.3-0.8c2.4-6.4,4.8-12.9,7.2-19.3
			c2.9-7.8,5.8-15.6,8.7-23.4c0-0.1,0-0.1,0.1-0.2c0.2,0,0.3,0,0.5,0c0,0,0.1,0,0.1,0.1c0,0,0,0,0,0c0,14.9,0,29.9,0,44.8
			c0,0.1,0,0.1-0.1,0.1c-15.3,0-30.6,0-45.8,0c-0.1,0-0.1,0-0.1-0.1C1,33.1,1,19.8,1,6.5C1,6.5,1,6.5,1,6.5z"/>
		<path fill="#FEFEFE" d="M14,1.5c0.6,1.6,1.2,3.1,1.7,4.7c0,0.1,0.1,0.2,0.1,0.3c0,0,0,0-0.1,0c-4.9,0-9.8,0-14.7,0c0,0,0,0,0,0
			c0-1.6,0-3.2,0-4.8c0-0.1,0-0.1,0.1-0.1C5.4,1.5,9.7,1.5,14,1.5z"/>
		<path fill="#FEFEFE" d="M1,6.5C1,6.5,1,6.5,1,6.5C1,6.5,1,6.5,1,6.5C1,6.5,1,6.5,1,6.5C1,6.5,1,6.5,1,6.5z"/>
		<path fill="#FEFEFE" d="M33.6,6.5c-3.2,7.2-6.5,14.4-9.7,21.7c-2.7-7.2-5.4-14.4-8.1-21.7C21.7,6.5,27.7,6.5,33.6,6.5z"/>
	</g>
</g>
</svg>
