<?xml version="1.0" encoding="utf-8"?>
<!-- Generator: Adobe Illustrator 18.0.0, SVG Export Plug-In . SVG Version: 6.00 Build 0)  -->
<!DOCTYPE svg PUBLIC "-//W3C//DTD SVG 1.1//EN" "http://www.w3.org/Graphics/SVG/1.1/DTD/svg11.dtd">
<svg version="1.1" id="Слой_1" xmlns="http://www.w3.org/2000/svg" xmlns:xlink="http://www.w3.org/1999/xlink" x="0px" y="0px"
	 viewBox="14.5 0 65 18" enable-background="new 14.5 0 65 18" xml:space="preserve">
<g>
	<g>
		<path fill="#222222" d="M35.3,5.8l-4.2,11.7h-3.3l-2.6-7.2l-2.7,7.2h-3.3L15.1,5.8h3.2l2.8,7.9l2.9-7.9h2.9l2.8,7.9l2.8-7.9H35.3z
			"/>
		<path fill="#222222" d="M47.5,6.9c0.9,0.9,1.3,2.2,1.3,3.9v6.7h-3.4v-6.2c0-0.9-0.2-1.6-0.6-2.1s-1-0.7-1.8-0.7
			c-0.9,0-1.5,0.3-2,0.8c-0.5,0.5-0.8,1.3-0.8,2.4v5.8h-3.4V1.4h3.4V7c0.4-0.4,1-0.8,1.6-1c0.6-0.2,1.3-0.4,2.1-0.4
			C45.5,5.6,46.6,6,47.5,6.9z"/>
		<path fill="#222222" d="M51.9,5.8h3.4v11.7h-3.4V5.8z"/>
		<path fill="#222222" d="M66,16.9c-0.3,0.2-0.7,0.4-1.2,0.6s-1,0.2-1.5,0.2c-1.4,0-2.5-0.4-3.2-1.1c-0.8-0.7-1.1-1.7-1.1-3.1V8.6
			h-1.8V6h1.8V3.2h3.4V6h2.9v2.6h-2.9v4.7c0,0.5,0.1,0.9,0.4,1.1s0.6,0.4,1.1,0.4c0.5,0,1-0.1,1.4-0.4L66,16.9z"/>
		<path fill="#222222" d="M78.9,12.6H70c0.2,0.7,0.5,1.3,1.1,1.7s1.3,0.6,2.2,0.6c0.6,0,1.1-0.1,1.6-0.3s0.9-0.5,1.3-0.9l1.8,2
			c-1.1,1.3-2.7,1.9-4.8,1.9c-1.3,0-2.5-0.3-3.5-0.8c-1-0.5-1.8-1.2-2.3-2.1c-0.5-0.9-0.8-1.9-0.8-3.1c0-1.1,0.3-2.2,0.8-3.1
			c0.5-0.9,1.3-1.6,2.2-2.1c0.9-0.5,2-0.8,3.2-0.8C74,5.6,75,5.9,76,6.3c0.9,0.5,1.7,1.2,2.2,2.1c0.5,0.9,0.8,2,0.8,3.2
			C78.9,11.7,78.9,12,78.9,12.6z M71,8.8c-0.5,0.4-0.8,1-1,1.8h5.7c-0.1-0.7-0.4-1.3-1-1.8s-1.2-0.7-1.9-0.7
			C72.1,8.2,71.5,8.4,71,8.8z"/>
	</g>
	<path fill="#ECCD13" d="M52.1,3.6c-0.4-0.4-0.6-0.8-0.6-1.3c0-0.5,0.2-1,0.6-1.3c0.4-0.4,0.9-0.5,1.5-0.5c0.6,0,1.1,0.2,1.5,0.5
		c0.4,0.3,0.6,0.8,0.6,1.3c0,0.6-0.2,1-0.6,1.4c-0.4,0.4-0.9,0.6-1.5,0.6C53,4.2,52.5,4,52.1,3.6z"/>
</g>
</svg>
