<?xml version="1.0" encoding="utf-8"?>
<!-- Generator: Adobe Illustrator 18.0.0, SVG Export Plug-In . SVG Version: 6.00 Build 0)  -->
<!DOCTYPE svg PUBLIC "-//W3C//DTD SVG 1.1//EN" "http://www.w3.org/Graphics/SVG/1.1/DTD/svg11.dtd">
<svg version="1.1" id="Слой_1" xmlns="http://www.w3.org/2000/svg" xmlns:xlink="http://www.w3.org/1999/xlink" x="0px" y="0px"
	 viewBox="0 19.6 52.3 14.4" enable-background="new 0 19.6 52.3 14.4" xml:space="preserve">
<g>
	<path fill="#1E0F01" d="M16.6,19.6C16.6,19.6,16.6,19.7,16.6,19.6c-0.5,1.3-0.9,2.5-1.4,3.8c-1.2,3.3-2.5,6.7-3.7,10
		c-0.1,0.2-0.2,0.4-0.2,0.6c-0.2-0.5-0.4-0.9-0.5-1.4c-0.2-0.5-0.3-0.9-0.5-1.4c-0.2-0.5-0.3-0.9-0.5-1.4c-0.2-0.5-0.3-0.9-0.5-1.4
		c-0.8,1.7-1.5,3.4-2.3,5c0,0-5.2-12.1-5.2-12.2c1.6,0,3.2,0,4.8,0c0,0,0-0.1,0-0.1c-0.2-0.5-0.4-1-0.6-1.5c0,0,0,0,0,0
		C9.5,19.6,13.1,19.6,16.6,19.6z M6.5,21.2c0.9,2.4,1.8,4.7,2.6,7.1c0,0,0,0,0,0c1.1-2.4,2.1-4.7,3.2-7.1c0,0,0,0,0,0c0,0,0,0,0,0
		C10.4,21.2,8.5,21.2,6.5,21.2z"/>
</g>
<text transform="matrix(1 0 0 1 18.2504 30.9434)" fill="#1E0F01" font-family="'Roboto-Bold'" font-size="13.2305">white</text>
</svg>
