<?xml version="1.0" encoding="utf-8"?>
<!-- Generator: Adobe Illustrator 18.0.0, SVG Export Plug-In . SVG Version: 6.00 Build 0)  -->
<!DOCTYPE svg PUBLIC "-//W3C//DTD SVG 1.1//EN" "http://www.w3.org/Graphics/SVG/1.1/DTD/svg11.dtd">
<svg version="1.1" id="Слой_1" xmlns="http://www.w3.org/2000/svg" xmlns:xlink="http://www.w3.org/1999/xlink" x="0px" y="0px"
	 viewBox="0 0 64 23" enable-background="new 0 0 64 23" xml:space="preserve">
<g display="none">
	<path display="inline" fill="#231F20" d="M6.3,18c-3,0-6.3-1-6.3-4.5h3.5c0,1.1,0.7,1.9,2.9,1.9c1.8,0,2.2-0.9,2.2-1.4
		c0-2.2-8.2-0.5-8.2-5.4c0-1.9,1.2-4.4,5.3-4.4c2.6,0,5.7,0.6,5.9,4.3H8.2C8.1,7.8,7.8,6.9,5.9,6.9S3.8,7.6,3.8,8.2
		c0,2.1,8.2,0.5,8.2,5.4C12,17.4,8.3,18.1,6.3,18L6.3,18L6.3,18z M57.1,17.9h-0.3c-3.5-0.2-6.2-2-6.2-7.1c-0.3-3.4,2.2-6.3,5.6-6.6
		c0.2,0,0.4,0,0.7,0c3.7,0,6.2,2,6.2,6.5V12h-8.9c-0.2,1.5,0.8,3,2.4,3.2c0.1,0,0.2,0,0.3,0h0.3c1,0.1,1.9-0.5,2.2-1.4H63
		C62.3,16.3,59.9,18.1,57.1,17.9L57.1,17.9L57.1,17.9z M49.9,17.6h-3.4V0h3.4V17.6z M31.9,17.6h-3.4v-8c0-1.9-0.9-2.6-1.9-2.6
		c-1.7,0-2.4,1.1-2.4,2.7v7.8h-3.4V9.7c0-1.1-0.3-2.7-2.1-2.7c-1.8,0-2.2,1.1-2.2,2.5v8H13V4.5h3.3v1.9c0.7-1.4,2.1-2.3,3.7-2.2
		c1.5-0.1,3,0.7,3.7,2.1c0.7-1.3,2-2,3.4-2.1c2.3-0.2,4.3,1.4,4.6,3.7c0,0.2,0,0.4,0,0.6L31.9,17.6L31.9,17.6z M56.8,6.9
		c-1.6,0-2.5,1-2.7,2.7h5.4C59.6,8.2,58.4,7,56.8,6.9C56.9,6.9,56.9,6.9,56.8,6.9z M39.1,7.1c-2.2,0-3,1.9-3,4c0,1.5,0.6,4,2.9,4
		c2.1,0,3-1.9,3-3.8S41.4,7.1,39.1,7.1C39,7.1,39.1,7.1,39.1,7.1z M36.3,22.8h-3.4V4.5h3.3v1.9c0.6-1.1,1.7-1.9,2.9-2.2
		c0.3,0,0.7,0,1,0c2.9,0,5.5,2.2,5.5,6.8c0,3.6-1.7,7-5.6,7c-0.3,0-0.6,0-0.9,0c-1.2-0.2-2.2-0.9-2.8-2L36.3,22.8L36.3,22.8z"/>
	<path display="inline" fill="none" d="M0,0h63.1v22.8H0V0z"/>
	<path display="inline" fill="#E8158D" d="M13,0.1h3.3v3.2H13L13,0.1z"/>
</g>
<g>
	<path fill="#222222" d="M20.3,7.8l-4.2,11.7h-3.3l-2.6-7.2l-2.7,7.2H4.2L0,7.8h3.2L6,15.7l2.9-7.9h2.9l2.8,7.9l2.8-7.9H20.3z"/>
	<path fill="#222222" d="M32.5,9c0.9,0.9,1.3,2.2,1.3,3.9v6.7h-3.4v-6.2c0-0.9-0.2-1.6-0.6-2.1s-1-0.7-1.8-0.7c-0.9,0-1.5,0.3-2,0.8
		c-0.5,0.5-0.8,1.3-0.8,2.4v5.8h-3.4V3.4h3.4v5.6c0.4-0.4,1-0.8,1.6-1c0.6-0.2,1.3-0.4,2.1-0.4C30.4,7.7,31.6,8.1,32.5,9z"/>
	<path fill="#222222" d="M36.9,7.8h3.4v11.7h-3.4V7.8z"/>
	<path fill="#222222" d="M50.9,18.9c-0.3,0.2-0.7,0.4-1.2,0.6s-1,0.2-1.5,0.2c-1.4,0-2.5-0.4-3.2-1.1c-0.8-0.7-1.1-1.8-1.1-3.1v-4.8
		H42V8.1h1.8V5.3h3.4v2.8h2.9v2.6h-2.9v4.7c0,0.5,0.1,0.9,0.4,1.1s0.6,0.4,1.1,0.4c0.5,0,1-0.1,1.4-0.4L50.9,18.9z"/>
	<path fill="#222222" d="M63.8,14.6H55c0.2,0.7,0.5,1.3,1.1,1.7s1.3,0.6,2.2,0.6c0.6,0,1.1-0.1,1.6-0.3s0.9-0.5,1.3-0.9l1.8,2
		c-1.1,1.3-2.7,1.9-4.8,1.9c-1.3,0-2.5-0.3-3.5-0.8c-1-0.5-1.8-1.2-2.3-2.1c-0.5-0.9-0.8-1.9-0.8-3.1c0-1.1,0.3-2.2,0.8-3.1
		c0.5-0.9,1.3-1.6,2.2-2.1c0.9-0.5,2-0.8,3.2-0.8c1.1,0,2.2,0.2,3.1,0.7c0.9,0.5,1.7,1.2,2.2,2.1c0.5,0.9,0.8,2,0.8,3.2
		C63.9,13.8,63.9,14.1,63.8,14.6z M55.9,10.9c-0.5,0.4-0.8,1-1,1.8h5.7c-0.1-0.7-0.4-1.3-1-1.8s-1.2-0.7-1.9-0.7
		C57.1,10.2,56.4,10.4,55.9,10.9z"/>
</g>
<path fill="#ECCD13" d="M37,5.7c-0.4-0.4-0.6-0.8-0.6-1.3c0-0.5,0.2-1,0.6-1.3c0.4-0.4,0.9-0.5,1.5-0.5c0.6,0,1.1,0.2,1.5,0.5
	c0.4,0.3,0.6,0.8,0.6,1.3c0,0.6-0.2,1-0.6,1.4c-0.4,0.4-0.9,0.6-1.5,0.6C37.9,6.2,37.4,6,37,5.7z"/>
</svg>
