<?xml version="1.0" encoding="utf-8"?>
<!-- Generator: Adobe Illustrator 18.0.0, SVG Export Plug-In . SVG Version: 6.00 Build 0)  -->
<!DOCTYPE svg PUBLIC "-//W3C//DTD SVG 1.1//EN" "http://www.w3.org/Graphics/SVG/1.1/DTD/svg11.dtd">
<svg version="1.1" id="Слой_1" xmlns="http://www.w3.org/2000/svg" xmlns:xlink="http://www.w3.org/1999/xlink" x="0px" y="0px"
	 viewBox="0 19.6 48 14.4" enable-background="new 0 19.6 48 14.4" xml:space="preserve">
<g>
	<path fill="#1E0F01" d="M16.6,19.6C16.6,19.6,16.6,19.7,16.6,19.6c-0.5,1.3-0.9,2.5-1.4,3.8c-1.2,3.3-2.5,6.7-3.7,10
		c-0.1,0.2-0.2,0.4-0.2,0.6c-0.2-0.5-0.4-0.9-0.5-1.4c-0.2-0.5-0.3-0.9-0.5-1.4c-0.2-0.5-0.3-0.9-0.5-1.4c-0.2-0.5-0.3-0.9-0.5-1.4
		c-0.8,1.7-1.5,3.4-2.3,5c0,0-5.2-12.1-5.2-12.2c1.6,0,3.2,0,4.8,0c0,0,0-0.1,0-0.1c-0.2-0.5-0.4-1-0.6-1.5c0,0,0,0,0,0
		C9.5,19.6,13.1,19.6,16.6,19.6z M6.5,21.2c0.9,2.4,1.8,4.7,2.6,7.1c0,0,0,0,0,0c1.1-2.4,2.1-4.7,3.2-7.1c0,0,0,0,0,0c0,0,0,0,0,0
		C10.4,21.2,8.5,21.2,6.5,21.2z"/>
	<path fill="#231305" d="M22.9,26.1c0.1-0.2,0.2-0.4,0.3-0.6c0.3-0.7,0.6-1.5,1-2.2c0,0,0,0,0,0c0-0.1,0.1-0.1,0.2-0.1
		c0.1,0,0.1,0.1,0.1,0.2c-0.1,0.1-0.1,0.3-0.2,0.4c-0.4,0.9-0.8,1.7-1.1,2.6c0,0,0,0.1,0,0.1c0.4,0.9,0.8,1.8,1.2,2.7c0,0,0,0,0,0.1
		c0,0,0,0,0-0.1c0.3-0.6,0.5-1.2,0.8-1.8c0.6-1.4,1.2-2.7,1.8-4.1c0,0,0,0,0-0.1c0-0.1,0.1-0.1,0.2-0.1c0.1,0,0.1,0.1,0.1,0.2
		c-0.1,0.2-0.2,0.4-0.3,0.6c-0.8,1.9-1.7,3.9-2.5,5.8c0,0,0,0,0,0.1c-0.2-0.5-0.5-1-0.7-1.6c-0.2-0.5-0.5-1-0.7-1.5c0,0,0,0,0,0
		c0,0,0,0,0,0c0,0,0,0,0,0c-0.4,1-0.9,2-1.3,3.1c0,0,0,0,0,0c0,0,0,0,0-0.1c-0.9-2.1-1.9-4.3-2.8-6.4c0,0,0-0.1,0-0.1
		c0-0.1,0-0.1,0.1-0.1c0,0,0.1,0,0.1,0c0,0,0,0,0,0.1c0.8,1.8,1.6,3.5,2.3,5.3c0.1,0.2,0.2,0.4,0.3,0.6c0,0,0,0,0,0.1c0,0,0,0,0-0.1
		c0.4-0.9,0.8-1.8,1.2-2.7c0-0.1,0-0.1,0-0.2c-0.4-1-0.9-2-1.3-3c0,0,0,0,0-0.1c0-0.1,0-0.1,0.1-0.2c0.1,0,0.1,0,0.2,0.1
		c0,0,0,0,0,0.1C22,24.2,22.4,25.1,22.9,26.1C22.8,26.1,22.9,26.1,22.9,26.1z"/>
	<path fill="#231305" d="M43.2,26.9c-0.9,0-1.9,0-2.8,0c0,0-0.1,0-0.1,0c0,0-0.1,0-0.1-0.1c0-0.1,0-0.1,0.1-0.1c0,0,0.1,0,0.1,0
		c1.8,0,3.7,0,5.5,0c0.1,0,0.1,0,0.1-0.1c-0.1-0.8-0.3-1.5-0.9-2c-0.4-0.4-0.9-0.8-1.4-1c-0.4-0.1-0.8-0.2-1.2-0.2
		c-1.1,0-1.9,0.5-2.6,1.3c-0.4,0.5-0.6,1-0.7,1.6c-0.2,1.2,0.1,2.2,1,3c0.4,0.4,0.8,0.6,1.3,0.8c0.4,0.1,0.9,0.2,1.3,0.2
		c0.8,0,1.4-0.3,2-0.8c0,0,0.1-0.1,0.1-0.1c0,0,0.1,0,0.1,0c0,0,0,0.1,0,0.1c0,0,0,0,0,0c0,0,0,0-0.1,0.1c-0.5,0.4-1.1,0.7-1.8,0.8
		c-0.5,0.1-1,0.1-1.5-0.1c-0.5-0.1-1-0.4-1.4-0.7c-0.5-0.4-0.8-0.9-1.1-1.5c-0.1-0.3-0.2-0.7-0.2-1.1c0-0.4,0-0.8,0.1-1.1
		c0.1-0.6,0.4-1.1,0.8-1.5c0.4-0.5,0.9-0.8,1.4-1c0.4-0.2,0.8-0.2,1.2-0.2c0.4,0,0.9,0,1.3,0.2c0.6,0.2,1.1,0.5,1.5,1
		c0.4,0.4,0.6,0.8,0.8,1.3c0.1,0.4,0.2,0.8,0.2,1.2c0,0.1,0,0.2-0.1,0.2c0,0-0.1,0-0.1,0C45.1,26.9,44.2,26.9,43.2,26.9z"/>
	<path fill="#231305" d="M28.4,24.7c0-0.1,0.1-0.2,0.1-0.2c0.1-0.3,0.3-0.6,0.6-0.8c0.5-0.4,1.1-0.6,1.7-0.5c0.5,0,0.9,0.2,1.2,0.5
		c0.5,0.4,0.7,0.9,0.8,1.5c0,0.3,0,0.6,0,0.9c0,1.3,0,2.6,0,4c0,0,0,0.1,0,0.1c0,0.1,0,0.1-0.1,0.1c-0.1,0-0.1,0-0.1-0.1
		c0,0,0-0.1,0-0.1c0-1.2,0-2.5,0-3.7c0-0.3,0-0.6,0-1c0-0.3-0.1-0.6-0.2-0.9c-0.2-0.5-0.6-0.8-1-1c-0.3-0.1-0.6-0.2-0.9-0.2
		c-0.5,0-0.9,0.1-1.3,0.4c-0.4,0.3-0.7,0.7-0.8,1.3c0,0.2-0.1,0.4-0.1,0.5c0,0.3,0,0.5,0,0.8c0,1.2,0,2.4,0,3.7c0,0.1,0,0.1,0.1,0.1
		c0.1,0,0.2,0,0.3,0c0,0,0.1,0,0.1,0c0,0,0.1,0.1,0.1,0.1c0,0,0,0.1-0.1,0.1c0,0,0,0-0.1,0c-0.3,0-0.7,0-1,0c0,0,0,0-0.1,0
		c0,0-0.1-0.1-0.1-0.1c0,0,0-0.1,0.1-0.1c0,0,0,0,0.1,0c0.1,0,0.2,0,0.3,0c0.1,0,0.1,0,0.1-0.1c0,0,0,0,0,0c0-3,0-5.9,0-8.9
		c0,0,0-0.1,0-0.1c0-0.1,0.1-0.1,0.1-0.1c0.1,0,0.1,0,0.1,0.1c0,0,0,0.1,0,0.1c0,1.1,0,2.1,0,3.2C28.4,24.4,28.4,24.5,28.4,24.7
		C28.4,24.6,28.4,24.6,28.4,24.7z"/>
	<path fill="#231305" d="M36.8,26.9c0,1.1,0,2.2,0,3.2c0,0,0,0.1,0,0.1c0,0.1,0,0.1-0.1,0.1c-0.1,0-0.1,0-0.1-0.1c0,0,0,0,0-0.1
		c0-2.2,0-4.3,0-6.5c0-0.1,0-0.1-0.1-0.1c-0.3,0-0.5,0-0.8,0c0,0-0.1,0-0.1,0c-0.1,0-0.1,0-0.1-0.1c0-0.1,0-0.1,0.1-0.1
		c0,0,0,0,0.1,0c0.3,0,0.5,0,0.8,0c0,0,0,0,0.1,0c0,0,0,0,0,0c0,0,0,0,0-0.1c0-0.3,0-0.7,0-1c0,0,0,0,0-0.1c0-0.1,0.1-0.1,0.1-0.1
		c0.1,0,0.1,0,0.1,0.1c0,0.2,0,0.5,0,0.7c0,0.1,0,0.2,0,0.3c0,0,0,0.1,0.1,0.1c0,0,0,0,0.1,0c0.9,0,1.8,0,2.6,0c0,0,0,0,0.1,0
		c0.1,0,0.1,0,0.1,0.1c0,0.1,0,0.1-0.1,0.1c0,0,0,0-0.1,0c-0.9,0-1.8,0-2.7,0c-0.1,0-0.1,0-0.1,0.1C36.8,24.7,36.8,25.8,36.8,26.9z"
		/>
	<path fill="#231305" d="M34.4,26.7c0-1.1,0-2.2,0-3.2c0,0,0-0.1,0-0.1c0-0.1,0-0.1,0.1-0.1c0.1,0,0.1,0,0.1,0.1c0,0,0,0.1,0,0.1
		c0,1.3,0,2.6,0,4c0,0.8,0,1.7,0,2.5c0,0,0,0,0,0c0,0.1,0,0.1,0.1,0.1c0.1,0,0.2,0,0.3,0c0,0,0.1,0,0.1,0c0,0,0.1,0.1,0.1,0.1
		c0,0,0,0.1-0.1,0.1c0,0,0,0-0.1,0c-0.3,0-0.7,0-1,0c0,0,0,0-0.1,0c0,0-0.1-0.1-0.1-0.1c0,0,0-0.1,0.1-0.1c0,0,0,0,0.1,0
		c0.1,0,0.2,0,0.3,0c0.1,0,0.1,0,0.1-0.1c0,0,0,0,0,0C34.4,28.9,34.4,27.8,34.4,26.7z"/>
	<path fill="#231305" d="M34,22.2c0-0.3,0.3-0.6,0.6-0.6c0.3,0,0.6,0.3,0.6,0.6c0,0.3-0.3,0.6-0.6,0.6C34.2,22.7,33.9,22.5,34,22.2z
		 M34.5,22.5C34.5,22.5,34.6,22.5,34.5,22.5c0.2,0,0.3-0.1,0.3-0.2c0-0.1,0-0.2,0-0.3c0-0.1-0.1-0.1-0.2-0.2c-0.1,0-0.2,0-0.2,0
		c-0.1,0-0.2,0.1-0.2,0.2c0,0.1,0,0.2,0,0.2C34.2,22.4,34.3,22.5,34.5,22.5C34.5,22.5,34.5,22.5,34.5,22.5z"/>
	<path fill="#FFFFFF" d="M34.5,22.5C34.5,22.5,34.5,22.5,34.5,22.5c-0.2,0-0.3-0.1-0.3-0.2c0-0.1,0-0.2,0-0.2c0-0.1,0.1-0.2,0.2-0.2
		c0.1,0,0.2,0,0.2,0c0.1,0,0.1,0.1,0.2,0.2c0,0.1,0,0.2,0,0.3C34.8,22.4,34.7,22.5,34.5,22.5C34.6,22.5,34.5,22.5,34.5,22.5z"/>
</g>
</svg>
