<?xml version="1.0" encoding="utf-8"?>
<!-- Generator: Adobe Illustrator 18.0.0, SVG Export Plug-In . SVG Version: 6.00 Build 0)  -->
<!DOCTYPE svg PUBLIC "-//W3C//DTD SVG 1.1//EN" "http://www.w3.org/Graphics/SVG/1.1/DTD/svg11.dtd">
<svg version="1.1" id="Слой_1" xmlns="http://www.w3.org/2000/svg" xmlns:xlink="http://www.w3.org/1999/xlink" x="0px" y="0px"
	 viewBox="0 37 48 13.2" enable-background="new 0 37 48 13.2" xml:space="preserve">
<g>
	<path fill="#1E0F01" d="M15.2,37C15.2,37,15.2,37.1,15.2,37c-0.5,1.2-0.8,2.3-1.3,3.5c-1.1,3-2.3,6.1-3.4,9.2
		c-0.1,0.2-0.2,0.4-0.2,0.6c-0.2-0.5-0.4-0.8-0.5-1.3c-0.2-0.5-0.3-0.8-0.5-1.3c-0.2-0.5-0.3-0.8-0.5-1.3c-0.2-0.5-0.3-0.8-0.5-1.3
		c-0.7,1.6-1.4,3.1-2.1,4.6c0,0-4.8-11.1-4.8-11.2c1.5,0,2.9,0,4.4,0v-0.1c-0.2-0.5-0.4-0.9-0.6-1.4l0,0C8.7,37,12,37,15.2,37z
		 M6,38.5c0.8,2.2,1.7,4.3,2.4,6.5l0,0c1-2.2,1.9-4.3,2.9-6.5l0,0l0,0C9.5,38.5,7.8,38.5,6,38.5z"/>
</g>
<g enable-background="new    ">
	<path fill="#1E0F01" d="M23,45.1l0.8-4.1h1.7l-1.6,6.4h-1.4l-1.2-4l-1.2,4h-1.4L16.9,41h1.7l0.8,4.1l1.2-4.1h1.2L23,45.1z"/>
	<path fill="#1E0F01" d="M28,41.7c0.5-0.5,1-0.8,1.7-0.8c1.4,0,2.1,0.8,2.1,2.4v4.1h-1.7v-4.1c0-0.4-0.1-0.6-0.2-0.8
		s-0.4-0.3-0.8-0.3c-0.5,0-0.9,0.2-1.1,0.6v4.6h-1.7v-9.1H28V41.7z"/>
	<path fill="#1E0F01" d="M33.1,39.3c0-0.3,0.1-0.5,0.3-0.6s0.4-0.2,0.7-0.2c0.3,0,0.5,0.1,0.7,0.2s0.3,0.4,0.3,0.6
		c0,0.3-0.1,0.5-0.3,0.6s-0.4,0.2-0.7,0.2c-0.3,0-0.5-0.1-0.7-0.2S33.1,39.6,33.1,39.3z M34.9,47.4h-1.7V41h1.7V47.4z"/>
	<path fill="#1E0F01" d="M38.4,39.4V41h1.1v1.3h-1.1v3.2c0,0.2,0,0.4,0.1,0.5c0.1,0.1,0.3,0.2,0.5,0.2c0.2,0,0.4,0,0.5,0v1.3
		c-0.3,0.1-0.7,0.2-1,0.2c-1.2,0-1.8-0.6-1.8-1.8v-3.5h-0.9V41h0.9v-1.6H38.4z"/>
	<path fill="#1E0F01" d="M43.4,47.5c-0.9,0-1.7-0.3-2.3-0.9s-0.9-1.3-0.9-2.3v-0.2c0-0.6,0.1-1.2,0.4-1.7c0.2-0.5,0.6-0.9,1.1-1.2
		c0.5-0.3,1-0.4,1.6-0.4c0.9,0,1.6,0.3,2.1,0.8c0.5,0.6,0.8,1.3,0.8,2.4v0.7H42c0.1,0.4,0.2,0.8,0.5,1s0.6,0.4,1.1,0.4
		c0.7,0,1.2-0.2,1.5-0.7l0.8,0.9c-0.3,0.4-0.6,0.6-1,0.9C44.4,47.4,43.9,47.5,43.4,47.5z M43.2,42.3c-0.3,0-0.6,0.1-0.8,0.3
		c-0.2,0.2-0.3,0.6-0.4,1h2.4v-0.1c0-0.4-0.1-0.7-0.3-0.9C43.8,42.4,43.6,42.3,43.2,42.3z"/>
</g>
</svg>
