<?xml version="1.0" encoding="utf-8"?>
<!-- Generator: Adobe Illustrator 18.0.0, SVG Export Plug-In . SVG Version: 6.00 Build 0)  -->
<!DOCTYPE svg PUBLIC "-//W3C//DTD SVG 1.1//EN" "http://www.w3.org/Graphics/SVG/1.1/DTD/svg11.dtd">
<svg version="1.1" id="Слой_1" xmlns="http://www.w3.org/2000/svg" xmlns:xlink="http://www.w3.org/1999/xlink" x="0px" y="0px"
	 viewBox="0 140.3 533.2 116.5" enable-background="new 0 140.3 533.2 116.5" xml:space="preserve">
<path fill="#ECCD13" d="M72.9,206l-5.2-43.1H27.8l-5,43.2c-1.3,12.3,3.9,15.6,11.9,19.3c5.9,2.7,11,5,11,15.6v15.7H50V241
	c0-10.5,5.1-12.9,11-15.6C68.7,221.8,74.1,218.2,72.9,206 M47.8,223c-9.3,0-16.1-3.5-18.5-7.3c-1.7-3.1-2.2-6.8-1.5-10.2l0.4-2.9
	h39.2l0.4,2.9c0.7,3.5,0.2,7.1-1.5,10.2C63.9,219.4,57.2,223,47.8,223"/>
<path fill="#ECCD13" d="M41.3,241c0-7.8-2.8-9.1-8.5-11.7c-6.8-3.1-16.1-7.4-14.3-23.8l4.9-42.6H7.7c-4.2,0-7.7,3.4-7.7,7.7v78.6
	c0,4.2,3.4,7.7,7.7,7.7h33.6L41.3,241L41.3,241z M88.1,162.9h-16l5,42.7c1.6,15.1-5.9,19.9-14.3,23.8c-5.8,2.4-8.5,3.8-8.5,11.6
	v15.7h33.7c4.2,0,7.7-3.4,7.7-7.7v-78.6C95.7,166.3,92.3,162.9,88.1,162.9"/>
<g>
	<g>
		<path fill="#222222" d="M261.4,173.9L235,246.7h-20.3l-16.4-45.2l-16.9,45.2h-20.3l-26.2-72.7h19.9l17.2,49.2l17.8-49.2h17.9
			l17.3,49.2l17.7-49.2H261.4z"/>
		<path fill="#222222" d="M337.3,181c5.5,5.4,8.3,13.4,8.3,24.1v41.6h-21.1v-38.4c0-5.8-1.3-10.1-3.8-12.9c-2.5-2.8-6.2-4.3-11-4.3
			c-5.3,0-9.6,1.6-12.7,4.9c-3.2,3.3-4.7,8.2-4.7,14.7v36h-21.1V146.3h21.1v35.2c2.8-2.8,6.2-4.9,10.1-6.4c4-1.5,8.3-2.2,13-2.2
			C324.5,172.8,331.8,175.5,337.3,181z"/>
		<path fill="#222222" d="M364.7,173.9h21.1v72.7h-21.1V173.9z"/>
		<path fill="#222222" d="M452.3,243.2c-2.1,1.5-4.6,2.7-7.6,3.4s-6.2,1.2-9.5,1.2c-8.7,0-15.3-2.2-20.1-6.6
			c-4.7-4.4-7.1-10.9-7.1-19.5v-29.9h-11.2v-16.2H408v-17.7H429v17.7h18.1v16.2H429v29.6c0,3.1,0.8,5.4,2.4,7.1
			c1.6,1.7,3.8,2.5,6.7,2.5c3.3,0,6.2-0.9,8.5-2.7L452.3,243.2z"/>
		<path fill="#222222" d="M532.8,216.2h-55c1,4.5,3.3,8.1,7,10.7c3.7,2.6,8.3,3.9,13.8,3.9c3.8,0,7.1-0.6,10.1-1.7
			c2.9-1.1,5.7-2.9,8.2-5.3L528,236c-6.9,7.8-16.9,11.8-30,11.8c-8.2,0-15.5-1.6-21.8-4.8c-6.3-3.2-11.2-7.6-14.6-13.3
			c-3.4-5.7-5.1-12.1-5.1-19.3c0-7.1,1.7-13.5,5.1-19.3c3.4-5.7,8-10.2,13.9-13.4c5.9-3.2,12.5-4.8,19.8-4.8
			c7.1,0,13.6,1.5,19.3,4.6c5.8,3.1,10.3,7.5,13.6,13.2c3.3,5.7,4.9,12.4,4.9,19.9C533.2,210.8,533,212.7,532.8,216.2z M483.4,192.9
			c-3.2,2.7-5.2,6.4-5.9,11.1h35.8c-0.7-4.6-2.7-8.3-6-11c-3.2-2.7-7.2-4.1-11.9-4.1C490.7,188.8,486.7,190.1,483.4,192.9z"/>
	</g>
	<path fill="#ECCD13" d="M365.8,160.4c-2.4-2.3-3.7-5-3.7-8.4c0-3.3,1.2-6.1,3.7-8.4c2.4-2.3,5.6-3.4,9.5-3.4c3.9,0,7,1.1,9.5,3.2
		c2.4,2.2,3.6,4.9,3.6,8.1c0,3.5-1.2,6.4-3.6,8.7c-2.4,2.3-5.6,3.4-9.5,3.4C371.3,163.8,368.2,162.7,365.8,160.4z"/>
</g>
</svg>
