<svg viewBox="0 0 130 25" xmlns="http://www.w3.org/2000/svg"><g fill="none" fill-rule="evenodd"><path fill="#79B8E7" d="M13.532 4.185V.871H17v3.314z"/><path d="M12.218 9.952C11.96 6.097 8.75 5.419 6.073 5.403 1.79 5.387.508 7.952.5 9.952c0 5.112 8.516 3.419 8.508 5.685 0 .5-.443 1.436-2.322 1.427-2.266 0-2.976-.879-2.976-2.032H0c0 3.637 3.46 4.742 6.58 4.758 2.154 0 6.017-.677 6.033-4.653 0-5.04-8.589-3.492-8.572-5.645 0-.589.25-1.339 2.225-1.33 1.976.007 2.29.943 2.42 1.798l3.532-.008zm1.371-4.307l-.056 13.653h3.62V10.92c0-1.452.565-2.605 2.259-2.605 1.83 0 2.169 1.613 2.169 2.807v8.201h3.597v-8.177c0-1.613.677-2.807 2.508-2.798 1.032 0 1.952.685 1.943 2.71l-.008 8.298h3.597l.04-9.452c0-2.976-2.04-4.548-4.75-4.556a4.178 4.178 0 0 0-3.645 2.137 4.032 4.032 0 0 0-3.846-2.17 4.032 4.032 0 0 0-3.888 2.347h-.064V5.645h-3.476zm28.347-.226a7.201 7.201 0 0 0-1.065.073 4.37 4.37 0 0 0-3.048 2.234V5.742h-3.556l-.081 19.12h3.621v-7.257h.064a3.799 3.799 0 0 0 2.88 2.032c.327.056.659.088.991.097 4.081 0 5.84-3.54 5.855-7.258 0-4.718-2.677-7.073-5.726-7.089l.065.032zm-1.137 11.395h-.089c-2.347 0-2.992-2.532-2.984-4.137 0-2.161.807-4.177 3.105-4.17 2.476 0 3.089 2.218 3.08 4.396 0 2-.886 3.855-3.112 3.911zm7.589 2.71h3.62l.081-18.395h-3.62l-.081 18.395zm17.476-5.871v-1.339c0-4.701-2.54-6.806-6.452-6.822h-.065c-5.943 0-6.556 5.217-6.564 6.854 0 5.452 2.79 7.371 6.5 7.484h.323a5.968 5.968 0 0 0 6.072-4.354H61.96a2.315 2.315 0 0 1-2.282 1.46h-.322c-2.613-.194-2.815-2.356-2.807-3.356l9.315.073zm-6.492-5.226c1.17 0 2.613.694 2.814 2.871h-5.645c.21-1.774 1.137-2.855 2.83-2.847v-.024z" fill="#0A0C06" fill-rule="nonzero"/><path d="M125.72 7.258a6.25 6.25 0 0 0-1.613-.185 4.645 4.645 0 0 0-1.968.322c-.392.16-.743.409-1.024.726a1.75 1.75 0 0 0-.403.742 3 3 0 0 0-.097.548c-.03.438.073.874.299 1.25.234.295.54.525.887.67.458.18.927.333 1.403.46l1.847.483c.508.137.992.274 1.475.436.506.123.986.333 1.42.62.44.264.812.626 1.089 1.057.301.512.45 1.1.427 1.694a3.467 3.467 0 0 1-.492 1.83c-.29.497-.7.913-1.193 1.21a4.742 4.742 0 0 1-1.613.645 7.347 7.347 0 0 1-1.718.202 6.258 6.258 0 0 1-4.129-1.234 4.839 4.839 0 0 1-1.411-3.823v-.395h1.258v.371a3.62 3.62 0 0 0 1.056 2.911 4.951 4.951 0 0 0 3.226.928c.457.016.913-.017 1.363-.097.434-.09.851-.251 1.234-.476.345-.199.64-.475.863-.806a1.96 1.96 0 0 0 .322-1.218 1.822 1.822 0 0 0-.322-1.153 2.42 2.42 0 0 0-.88-.758 5.129 5.129 0 0 0-1.306-.516l-1.613-.404c-.62-.16-1.161-.298-1.613-.435a9.597 9.597 0 0 1-1.298-.476 2.822 2.822 0 0 1-1.355-1.097 3.637 3.637 0 0 1-.42-1.863c.01-.42.097-.836.259-1.225.172-.454.448-.86.806-1.186a4.46 4.46 0 0 1 1.468-.806 6.177 6.177 0 0 1 2.145-.307 5.734 5.734 0 0 1 3.621 1.065c.98.85 1.49 2.12 1.371 3.411v.363h-1.185v-.363a3.799 3.799 0 0 0-.258-1.5 2.42 2.42 0 0 0-.75-.968 3.226 3.226 0 0 0-1.178-.653zm-10.919.686V6.097h-1.218l-.056 13.556h1.226v-7.621c-.001-.659.097-1.314.29-1.944a4.54 4.54 0 0 1 .863-1.613c.388-.47.883-.84 1.443-1.08a4.266 4.266 0 0 1 2.13-.339h.378V5.822h-.354a6.871 6.871 0 0 0-2.146.258 5.395 5.395 0 0 0-1.613.807 4.17 4.17 0 0 0-1 1.064l.057-.008zm-6.194-.492a4.839 4.839 0 0 0-3.766-.105 4.339 4.339 0 0 0-1.483 1.072 5.534 5.534 0 0 0-1.033 1.718 6.766 6.766 0 0 0-.46 1.92l9.428.04a7.347 7.347 0 0 0-.282-1.75 5.29 5.29 0 0 0-.904-1.75 3.903 3.903 0 0 0-1.443-1.153l-.057.008zm-4.29 10.806a5.589 5.589 0 0 0 5.283-.516 4.46 4.46 0 0 0 1.548-2.96l.048-.307h1.226l-.056.412a5.516 5.516 0 0 1-1.88 3.71 6.016 6.016 0 0 1-3.927 1.29 6.145 6.145 0 0 1-2.726-.516 5.016 5.016 0 0 1-1.854-1.517 6.911 6.911 0 0 1-1.049-2.274 10.975 10.975 0 0 1-.322-2.766 8.153 8.153 0 0 1 .508-2.968 6.798 6.798 0 0 1 1.306-2.21 5.476 5.476 0 0 1 1.936-1.402 5.29 5.29 0 0 1 2.234-.468 5.685 5.685 0 0 1 2.742.62c.747.382 1.394.934 1.887 1.614.5.687.857 1.469 1.048 2.298a8.79 8.79 0 0 1 .274 2.653v.347l-10.702-.04c.028.662.117 1.321.266 1.967.16.645.434 1.257.807 1.807.371.502.855.91 1.411 1.193l-.008.033zm-6.137-.121a1.242 1.242 0 0 1-.314-.46 2.823 2.823 0 0 1-.121-.984V7.225h2.895V6.032h-2.895V1.338h-1.226V6.04h-2.347v1.218h2.347v9.572a2.798 2.798 0 0 0 .71 2.178c.491.392 1.104.6 1.733.588h.807l.806-.08v-1.403l-.5.201a1.137 1.137 0 0 1-.282.04h-1.217a.806.806 0 0 1-.38-.177l-.016-.04zm-7.242-5.29c-.502.07-1.009.111-1.516.12l-1.516.065c-.477.032-.951.096-1.42.193a2.823 2.823 0 0 0-1.12.444 2.008 2.008 0 0 0-.75.855 3.145 3.145 0 0 0-.299 1.484c0 .33.053.66.153.976.113.31.302.587.549.806.301.265.648.472 1.024.613.522.16 1.067.237 1.613.226a5.072 5.072 0 0 0 2.08-.38 4.79 4.79 0 0 0 1.509-1.007c.406-.424.722-.926.927-1.476.214-.548.326-1.13.33-1.718v-1.613c-.108.057-.222.105-.338.145a6.653 6.653 0 0 1-1.266.29l.04-.024zM86.93 6.063a6.323 6.323 0 0 1 2.218-.33 7.549 7.549 0 0 1 1.685.185c.539.12 1.043.36 1.476.702.437.328.788.757 1.024 1.25a4.42 4.42 0 0 1 .404 1.903v8.17a.694.694 0 0 0 .056.314c.06.062.135.106.218.129.143.03.289.043.435.04l.903-.08v1.257h-1.153a2.202 2.202 0 0 1-1.161-.314 1.46 1.46 0 0 1-.565-1.298v-.315a4.54 4.54 0 0 1-1.233 1.153 5.548 5.548 0 0 1-1.613.742 6.38 6.38 0 0 1-1.952.282 5.645 5.645 0 0 1-3.339-.935 3.411 3.411 0 0 1-1.266-2.936c-.02-.72.127-1.434.428-2.088.27-.51.667-.94 1.153-1.25a3.911 3.911 0 0 1 1.548-.621c.531-.117 1.07-.193 1.613-.226l2.274-.113c.493-.03.982-.108 1.46-.234a1.33 1.33 0 0 0 .718-.435c.174-.27.256-.59.234-.912a7.024 7.024 0 0 0-.09-1.137c-.06-.36-.206-.7-.426-.992a2.347 2.347 0 0 0-.968-.717 4.54 4.54 0 0 0-1.88-.315 4.185 4.185 0 0 0-2.902.887 3.46 3.46 0 0 0-1.138 2.516v.339h-1.217v-.387a5.387 5.387 0 0 1 .411-1.782 4.194 4.194 0 0 1 1.016-1.5 5.049 5.049 0 0 1 1.613-.968l.016.016zM78.68 19.5h1.161l4.404-13.532h-1.267l-3.677 11.476-3.685-11.516h-1.299l-3.742 11.476-3.564-11.508h-1.226l4.129 13.573h1.234L74.946 7.96 78.68 19.5zm32.484-17.395c-2.927 6.452-8.347-3.911-12.097-.629l-.12-.17c2.419-2.136 4.669-1.274 7.128-.088 1.83.879 4.032 2.597 4.952.645l.137.242z" fill="#79B8E7" fill-rule="nonzero"/></g></svg>