<svg viewBox="0 0 208 25" xmlns="http://www.w3.org/2000/svg"><path d="M89.531 10.234l2.734 9.922h4.141l4.688-14.61h-4.375L94.14 15.86 91.484 5.547h-3.906l-2.656 10.312-2.578-10.312h-4.375l4.687 14.609h4.14zm11.406-4.688v14.61h4.297V5.546zm0-2.109h4.297V0h-4.297zm9.766 2.11h-4.141v14.608h4.297v-8.203c0-.625.078-3.984 2.89-3.984 2.266 0 2.422 2.344 2.422 3.75v8.438h4.297v-9.141c0-5.469-2.89-6.016-4.844-6.016-1.953 0-3.828.703-5 2.344V5.546zm21.406 10.39c-.391 1.329-1.641 1.876-2.891 1.876-2.812 0-3.437-2.422-3.437-3.829h11.094v-.78c-.079-1.798-.391-8.126-7.422-8.126-4.688 0-8.125 2.735-8.125 7.813 0 7.5 5.859 7.89 7.734 7.89 2.656 0 6.328-.625 7.5-4.765h-4.453zm-6.328-4.453c.078-1.484 1.015-3.515 3.515-3.515 1.016 0 2.969.39 3.047 3.515zm20.156-5.937h-4.141v14.609h4.297v-8.203c0-.625.078-3.985 2.89-3.985 2.266 0 2.422 2.344 2.422 3.75v8.438h4.297v-9.14c0-5.47-2.89-6.016-4.844-6.016-1.953 0-3.828.703-5 2.344V5.547zm21.484 10.39c-.391 1.329-1.641 1.876-2.891 1.876-2.813 0-3.438-2.422-3.438-3.828h11.094v-.781c-.078-1.797-.39-8.125-7.421-8.125-4.688 0-8.125 2.734-8.125 7.812 0 7.5 5.859 7.89 7.734 7.89 2.656 0 6.328-.624 7.5-4.765h-4.453zm-6.407-4.452c.078-1.485 1.016-3.516 3.516-3.516 1.016 0 2.969.39 3.047 3.516zm21.72-1.25l2.734 9.922h4.14l4.688-14.61h-4.375l-2.578 10.313-2.656-10.312h-3.907l-2.656 10.312-2.578-10.312h-4.453l4.687 14.609h4.141zm10.78 5.312c.078 3.047 2.735 5.156 7.188 5.156 5.781 0 6.875-2.734 6.875-5 0-3.671-3.203-4.062-5.625-4.453-1.563-.234-3.594-.312-3.594-2.109 0-1.172 1.719-1.25 2.422-1.25.547 0 2.11-.078 2.266 1.64h3.906c-.078-1.953-1.25-4.609-6.485-4.609-6.093 0-6.64 3.203-6.64 4.531 0 3.516 2.969 4.22 5.078 4.532 2.187.312 4.14.546 4.14 2.187 0 1.094-1.25 1.563-2.265 1.563-1.719 0-2.813-.625-2.89-2.188zM65.859 8.281c1.328 0 2.89.703 3.125 2.89h-6.25c.234-1.796 1.25-2.89 3.125-2.89zm7.188 5.235v-1.329c0-4.687-2.813-6.796-7.11-6.796h-.078c-6.563.078-7.188 5.234-7.188 6.953 0 5.469 3.125 7.422 7.188 7.5h.39c2.579 0 5.626-1.094 6.72-4.375h-4.063c-.313 1.015-1.406 1.484-2.578 1.484h-.39c-2.891-.156-3.126-2.344-3.126-3.36h10.234z"/><path fill-rule="evenodd" d="M53.672.859h3.984v18.594h-3.984z"/><path d="M45.078 16.797H45c-2.578 0-3.281-2.5-3.281-4.14 0-2.188.86-4.22 3.437-4.22 2.735 0 3.438 2.188 3.438 4.376-.078 2.03-1.016 3.906-3.516 3.984M46.25 5.313c-.469 0-.781 0-1.172.078-1.875.313-2.734 1.406-3.36 2.266h-.077V5.704h-3.829v19.14h3.985v-7.187h.078c.39.625 1.172 1.719 3.203 2.031.313.078.703.078 1.094.078 4.531 0 6.406-3.593 6.406-7.343 0-4.688-2.969-7.11-6.328-7.11"/><path d="M14.922 5.703v13.75h3.984v-8.437c0-1.485.625-2.657 2.5-2.657 2.032 0 2.422 1.641 2.422 2.813v8.203h3.985v-8.203c0-1.64.703-2.813 2.734-2.813 1.172 0 2.188.704 2.188 2.735v8.36h3.984V9.921c0-2.969-2.266-4.531-5.234-4.531-2.422 0-3.516 1.484-4.063 2.187-1.094-1.406-2.031-2.187-4.219-2.187-2.656 0-3.75 1.484-4.297 2.344h-.078V5.703z" fill-rule="evenodd"/><path fill="#e6007f" fill-rule="evenodd" d="M14.922.078h3.672v3.359h-3.672z"/><path d="M13.438 10c-.313-3.828-3.828-4.531-6.797-4.531-4.765 0-6.094 2.578-6.094 4.61C.547 15.233 10 13.515 10 15.78c0 .469-.468 1.406-2.578 1.406-2.5 0-3.28-.859-3.28-2.03H0c0 3.671 3.829 4.765 7.266 4.765 2.344 0 6.64-.703 6.64-4.688 0-5.078-9.452-3.437-9.452-5.625 0-.625.312-1.328 2.421-1.328 2.188 0 2.5.938 2.657 1.797h3.906z" fill-rule="evenodd"/></svg>